<svg xmlns="http://www.w3.org/2000/svg" width="14" height="14" viewBox="0 0 14 14">
  <path fill="#333" fill-rule="evenodd" d="M5.91488513,-0.0499484367 L5.94723625,-0.0865846237 C6.08742446,-0.226772831 6.30801431,-0.237556539 6.46057201,-0.118935748 L6.49720819,-0.0865846237 L12.5308782,5.94708541 L12.5665663,5.98808156 L12.5954952,6.03238248 L12.6132656,6.06845415 L12.6312374,6.12008137 L12.6369594,6.14408426 L12.6441072,6.19907154 L12.6441072,6.2450388 L12.640538,6.27971791 L12.6342355,6.31238025 L12.6214711,6.35498693 L12.6081689,6.38705054 L12.5872678,6.42577138 L12.5708677,6.45020895 L12.5593466,6.46530154 L12.5308782,6.49705735 L6.49720819,12.5307274 C6.34533763,12.6825979 6.09910681,12.6825979 5.94723625,12.5307274 C5.80704804,12.3905392 5.79626434,12.1699493 5.91488513,12.0173916 L5.94723625,11.9807554 L11.3166667,6.61072222 L0.188552189,6.61096027 C-0.0108839711,6.61096027 -0.175256152,6.46083353 -0.19772036,6.26742404 L-0.2003367,6.22207138 C-0.2003367,6.02263522 -0.0502099597,5.85826304 0.143199529,5.83579883 L0.188552189,5.83318249 L11.3166667,5.83294444 L5.94723625,0.463387317 C5.80704804,0.32319911 5.79626434,0.102609255 5.91488513,-0.0499484367 L5.94723625,-0.0865846237 L5.91488513,-0.0499484367 Z" transform="translate(.778 .778)"/>
</svg>
