<svg xmlns="http://www.w3.org/2000/svg" width="1678" height="518" viewBox="0 0 1678 518">
  <g fill="none" fill-rule="evenodd">
    <g stroke="#E5E5E5" stroke-linecap="round" stroke-linejoin="round" stroke-width="2" transform="translate(-334 -94)">
      <path d="M326.428645,208.99276 C-110.985207,448.116936 167.806116,845.393445 552.352984,713.531602 C747.405514,646.647723 855.487272,426.249548 793.880103,310.351394 C732.272934,194.453803 525.225618,100.314989 326.428645,208.99276 Z" transform="rotate(41 457.593 450.35)"/>
      <path d="M1453.66818,555.94997 C1249.25479,411.298561 1074.79272,411.1371 999.4783,561.980209 C912.256819,736.672754 1017.32268,945.417799 1209.41813,1040.61828 C1417.85635,1143.91757 1589.83585,1058.09334 1622.54914,916.570965 C1655.26202,775.049062 1583.90932,648.11405 1453.66818,555.94997 Z" transform="rotate(180 1299.447 767.144)"/>
      <path d="M759.680692,669.52535 C881.872962,499.105471 887.086716,357.714574 768.070867,301.642743 C630.239019,236.706243 459.438754,328.722621 377.342481,487.532029 C288.261225,659.852202 352.2135,796.402316 464.980929,818.255967 C577.747796,840.110179 681.826383,778.107436 759.680692,669.52535 Z" transform="rotate(41 594.9 551.614)"/>
      <path d="M1480.66644,880.853089 C1706.69059,814.321494 1936.80541,705.009943 1813.54332,444.954743 C1725.48195,259.165116 1477.33326,257.195745 1293.27129,347.816061 C1093.54966,446.145379 1009.79646,674.253237 1088.19653,798.488379 C1166.59572,922.723596 1336.65625,923.243167 1480.66644,880.853089 Z" transform="rotate(12 1453.536 597.762)"/>
      <path d="M1700.03472,1102.66541 C1926.05887,1036.13382 2156.17368,926.822265 2032.91159,666.767064 C1944.85022,480.977437 1696.70154,479.008066 1512.63956,569.628383 C1312.91794,667.9577 1229.16473,896.065558 1307.5648,1020.3007 C1385.96399,1144.53592 1556.02453,1145.05549 1700.03472,1102.66541 Z" transform="rotate(12 1672.904 819.574)"/>
    </g>
    <path fill="#D9D9D9" d="M27.2388889,-0.000555555556 C27.8087065,-0.000555555556 28.2783413,0.428377989 28.3425247,0.980976527 L28.35,1.11055556 L28.35,2.79444444 L35.5888889,2.79455556 C36.1616286,2.79455556 36.6331554,3.2278997 36.6934802,3.78459887 L36.7,3.90566667 L36.7,35.0167778 C36.7,35.6304275 36.2025386,36.1278889 35.5888889,36.1278889 L35.5888889,36.1278889 L1.11111111,36.1278889 C0.497461389,36.1278889 2.38742359e-12,35.6304275 2.38742359e-12,35.0167778 L2.38742359e-12,35.0167778 L2.38742359e-12,3.90566667 C2.38742359e-12,3.29201694 0.497461389,2.79455556 1.11111111,2.79455556 L1.11111111,2.79455556 L8.35,2.79444444 L8.35,1.11055556 C8.35,0.496905834 8.84746139,-0.000555555556 9.46111111,-0.000555555556 C10.0309287,-0.000555555556 10.5005635,0.428377989 10.564747,0.980976527 L10.5722222,1.11055556 L10.572,2.79444444 L26.127,2.79444444 L26.1277778,1.11055556 C26.1277778,0.496905834 26.6252392,-0.000555555556 27.2388889,-0.000555555556 Z M34.477,14.4434444 L2.222,14.4434444 L2.22222222,33.9055556 L34.4777778,33.9055556 L34.477,14.4434444 Z M16.1277778,24.4434444 C16.7414275,24.4434444 17.2388889,24.9409058 17.2388889,25.5545556 L17.2388889,25.5545556 L17.2388889,27.7767778 C17.2388889,28.3904275 16.7414275,28.8878889 16.1277778,28.8878889 L16.1277778,28.8878889 L13.9055556,28.8878889 C13.2919058,28.8878889 12.7944444,28.3904275 12.7944444,27.7767778 L12.7944444,27.7767778 L12.7944444,25.5545556 C12.7944444,24.9409058 13.2919058,24.4434444 13.9055556,24.4434444 L13.9055556,24.4434444 Z M9.46111111,24.4434444 C10.0747608,24.4434444 10.5722222,24.9409058 10.5722222,25.5545556 L10.5722222,25.5545556 L10.5722222,27.7767778 C10.5722222,28.3904275 10.0747608,28.8878889 9.46111111,28.8878889 L9.46111111,28.8878889 L7.23888889,28.8878889 C6.62523917,28.8878889 6.12777778,28.3904275 6.12777778,27.7767778 L6.12777778,27.7767778 L6.12777778,25.5545556 C6.12777778,24.9409058 6.62523917,24.4434444 7.23888889,24.4434444 L7.23888889,24.4434444 Z M22.7944444,24.4434444 C23.4080942,24.4434444 23.9055556,24.9409058 23.9055556,25.5545556 L23.9055556,25.5545556 L23.9055556,27.7767778 C23.9055556,28.3904275 23.4080942,28.8878889 22.7944444,28.8878889 L22.7944444,28.8878889 L20.5722222,28.8878889 C19.9585725,28.8878889 19.4611111,28.3904275 19.4611111,27.7767778 L19.4611111,27.7767778 L19.4611111,25.5545556 C19.4611111,24.9409058 19.9585725,24.4434444 20.5722222,24.4434444 L20.5722222,24.4434444 Z M29.4611111,24.4434444 C30.0747608,24.4434444 30.5722222,24.9409058 30.5722222,25.5545556 L30.5722222,25.5545556 L30.5722222,27.7767778 C30.5722222,28.3904275 30.0747608,28.8878889 29.4611111,28.8878889 L29.4611111,28.8878889 L27.2388889,28.8878889 C26.6252392,28.8878889 26.1277778,28.3904275 26.1277778,27.7767778 L26.1277778,27.7767778 L26.1277778,25.5545556 C26.1277778,24.9409058 26.6252392,24.4434444 27.2388889,24.4434444 L27.2388889,24.4434444 Z M16.1277778,17.7767778 C16.7414275,17.7767778 17.2388889,18.2742392 17.2388889,18.8878889 L17.2388889,18.8878889 L17.2388889,21.1101111 C17.2388889,21.7237608 16.7414275,22.2212222 16.1277778,22.2212222 L16.1277778,22.2212222 L13.9055556,22.2212222 C13.2919058,22.2212222 12.7944444,21.7237608 12.7944444,21.1101111 L12.7944444,21.1101111 L12.7944444,18.8878889 C12.7944444,18.2742392 13.2919058,17.7767778 13.9055556,17.7767778 L13.9055556,17.7767778 Z M9.46111111,17.7767778 C10.0747608,17.7767778 10.5722222,18.2742392 10.5722222,18.8878889 L10.5722222,18.8878889 L10.5722222,21.1101111 C10.5722222,21.7237608 10.0747608,22.2212222 9.46111111,22.2212222 L9.46111111,22.2212222 L7.23888889,22.2212222 C6.62523917,22.2212222 6.12777778,21.7237608 6.12777778,21.1101111 L6.12777778,21.1101111 L6.12777778,18.8878889 C6.12777778,18.2742392 6.62523917,17.7767778 7.23888889,17.7767778 L7.23888889,17.7767778 Z M22.7944444,17.7767778 C23.4080942,17.7767778 23.9055556,18.2742392 23.9055556,18.8878889 L23.9055556,18.8878889 L23.9055556,21.1101111 C23.9055556,21.7237608 23.4080942,22.2212222 22.7944444,22.2212222 L22.7944444,22.2212222 L20.5722222,22.2212222 C19.9585725,22.2212222 19.4611111,21.7237608 19.4611111,21.1101111 L19.4611111,21.1101111 L19.4611111,18.8878889 C19.4611111,18.2742392 19.9585725,17.7767778 20.5722222,17.7767778 L20.5722222,17.7767778 Z M29.4611111,17.7767778 C30.0747608,17.7767778 30.5722222,18.2742392 30.5722222,18.8878889 L30.5722222,18.8878889 L30.5722222,21.1101111 C30.5722222,21.7237608 30.0747608,22.2212222 29.4611111,22.2212222 L29.4611111,22.2212222 L27.2388889,22.2212222 C26.6252392,22.2212222 26.1277778,21.7237608 26.1277778,21.1101111 L26.1277778,21.1101111 L26.1277778,18.8878889 C26.1277778,18.2742392 26.6252392,17.7767778 27.2388889,17.7767778 L27.2388889,17.7767778 Z M27.0951049,9.99332554 C26.2420768,9.92039936 25.5722222,9.20465646 25.5722222,8.33277778 C25.5722222,7.84042626 25.7863401,7.39736645 26.1266111,7.09203824 L26.127,5.01644444 L10.572,5.01644444 L10.5733889,7.09203824 C10.8802229,7.3673631 11.0844787,7.75468088 11.1216586,8.18914552 L11.1277778,8.33277778 C11.1277778,9.25309417 10.3814275,9.99944444 9.46111111,9.99944444 L9.46111111,9.99944444 L9.31732715,9.99332554 C8.46429899,9.92039936 7.79444444,9.20465646 7.79444444,8.33277778 C7.79444444,7.83995193 8.00897506,7.39651281 8.34981711,7.09115617 L8.35,5.01644444 L2.22222222,5.01666667 L2.222,12.2214444 L34.477,12.2214444 L34.4777778,5.01666667 L28.35,5.01644444 L28.3511667,7.09203824 C28.6580007,7.3673631 28.8622564,7.75468088 28.8994363,8.18914552 L28.9055556,8.33277778 C28.9055556,9.25309417 28.1592053,9.99944444 27.2388889,9.99944444 L27.2388889,9.99944444 Z" transform="translate(106.111 270.222)"/>
    <path fill="#D9D9D9" d="M27.0004,0.000100000001 L27.01901,-0.000717218358 C27.0472616,-0.000207675164 27.0753331,0.00151874072 27.103161,0.00441896493 L27.0004,0.000100000001 C27.0454346,0.000100000001 27.0897739,0.00307692813 27.1332318,0.00884473497 C27.1608848,0.0117646698 27.1882918,0.0166719509 27.2153681,0.0226968209 C27.2243594,0.0252279403 27.2336806,0.0274081767 27.2429507,0.0297177701 C27.2690412,0.0358531782 27.2943691,0.0433532775 27.3193193,0.051822719 C27.3301369,0.055665335 27.3411485,0.0595830028 27.3520692,0.0636862361 C27.3730067,0.0715034515 27.3936835,0.0801334007 27.4140339,0.0894318586 C27.4287508,0.0960937904 27.4427227,0.102860947 27.4565087,0.10993895 C27.4708051,0.117394851 27.4856139,0.125475552 27.5002084,0.133917944 C27.5184061,0.144301764 27.5359328,0.155183959 27.5530874,0.1665816 C27.5672943,0.176139504 27.5810976,0.185804 27.5946537,0.195807419 C27.6076706,0.205373142 27.620529,0.215380415 27.6331311,0.225689221 C27.6487277,0.238361581 27.6639621,0.251548583 27.6787984,0.265188278 C27.6920061,0.27759308 27.7050984,0.290358953 27.7178343,0.303472854 C27.7267859,0.312248737 27.7349606,0.320938568 27.7429831,0.329777385 C27.7578881,0.346825971 27.7726731,0.364353012 27.7868517,0.382379507 C27.8541043,0.466653638 27.9078009,0.56278147 27.9445793,0.667872613 L27.9739893,0.770809175 C27.9826261,0.807623802 27.9892288,0.845222053 27.9936723,0.883478875 L28.0004,1.0001 L28.0004,23.0001 L27.9964,23.058168 L28.0004,23.2101 C28.0004,25.8987194 25.8779615,28.091911 23.2172792,28.2054802 L23.0004,28.2101 C20.238422,28.2101 18.0004,25.9716915 18.0004,23.2101 C18.0004,20.4485085 20.238422,18.2101 23.0004,18.2101 C24.1264878,18.2101 25.1656664,18.582424 26.0015398,19.2106761 L26.0004,8.47316803 L10.0004,14.826168 L10.0004,30.1485 L9.9964,30.206168 L10.0004,30.3585 C10.0004,33.0471194 7.87796151,35.240311 5.21727922,35.3538802 L5.0004,35.3585 C2.23842195,35.3585 0.0004,33.1200915 0.0004,30.3585 C0.0004,27.5969085 2.23842195,25.3585 5.0004,25.3585 C6.12648785,25.3585 7.1656664,25.730824 8.00153984,26.3590761 L8.0004,8.1485 C8.0004,8.02632328 8.02231052,7.90926403 8.0624166,7.80103723 C8.06639184,7.7905634 8.07046515,7.78010617 8.07470977,7.76972848 C8.08514984,7.74403102 8.09671829,7.71885913 8.10927413,7.69427546 C8.1150454,7.68298579 8.12100298,7.67182303 8.1271675,7.66078096 C8.13899172,7.63970457 8.15151159,7.61912837 8.16473516,7.59905685 C8.17357888,7.58539906 8.1828672,7.5719869 8.19247907,7.55880714 C8.20551652,7.54126051 8.21897623,7.52406073 8.23297313,7.50732567 C8.24611537,7.49118962 8.26023192,7.47531558 8.27485679,7.45989011 C8.28554236,7.44907343 8.29598576,7.43855712 8.3066571,7.42827575 C8.32264906,7.41236986 8.34040123,7.3963943 8.3587474,7.38104298 C8.36928181,7.37266654 8.37930919,7.36460561 8.38949257,7.35673677 C8.4074186,7.34246702 8.42680339,7.32854889 8.44673277,7.31530292 C8.46171599,7.30567764 8.47596732,7.29671716 8.49045455,7.28811216 C8.53472336,7.26158797 8.58192369,7.23831819 8.63132507,7.21870036 L8.53821029,7.26148752 C8.55877378,7.25075069 8.57975716,7.24070796 8.60112935,7.23139042 L8.63132507,7.21870036 L26.6313251,0.0707003554 C26.6369619,0.0684618972 26.6426029,0.0662783161 26.6482475,0.0641492817 C26.6628347,0.0583685922 26.6781387,0.05302134 26.6936071,0.0480406015 C26.7171152,0.0406050858 26.7401296,0.0340359261 26.7631499,0.0283285722 C26.7731289,0.0259822672 26.7833779,0.0236571493 26.7936852,0.0214907644 C26.8211999,0.015359793 26.84821,0.0107376339 26.8751553,0.0072537142 C26.8832324,0.00685374562 26.8918481,0.00588577098 26.9004963,0.00502797241 C26.9314906,0.00113270314 26.961796,-0.000543906734 26.991921,-0.000831968874 L27.0004,0.000100000001 Z M5.0004,27.3585 C3.34306878,27.3585 2.0004,28.7014007 2.0004,30.3585 C2.0004,32.0155993 3.34306878,33.3585 5.0004,33.3585 C6.65711525,33.3585 8.0004,32.0152153 8.0004,30.3585 C8.0004,28.7017847 6.65711525,27.3585 5.0004,27.3585 Z M23.0004,20.2101 C21.3430688,20.2101 20.0004,21.5530007 20.0004,23.2101 C20.0004,24.8671993 21.3430688,26.2101 23.0004,26.2101 C24.6571153,26.2101 26.0004,24.8668153 26.0004,23.2101 C26.0004,21.5533847 24.6571153,20.2101 23.0004,20.2101 Z M26,2.473 L10.0004,8.82516803 L10.0004,12.673168 L26,6.321 L26,2.473 Z" transform="translate(357 233)"/>
    <path fill="#D9D9D9" d="M36.5135135,0.486778378 C37.0657983,0.486778378 37.5135135,0.934493629 37.5135135,1.48677838 L37.5135135,24.838227 C37.5135135,25.311614 37.1845799,25.7081743 36.7428043,25.8118163 L36.6301346,25.831402 L36.6301346,25.831402 L36.5135135,25.838227 L1.48648649,25.8381297 L1.36986536,25.831402 L1.36986536,25.831402 L1.25719566,25.8118163 C0.81542014,25.7081743 0.486486486,25.311614 0.486486486,24.838227 L0.486486486,24.838227 L0.486486486,1.48677838 C0.486486486,0.934493629 0.934201737,0.486778378 1.48648649,0.486778378 L36.5135135,0.486778378 Z M6.32348649,19.9997784 L2.48548649,19.9997784 L2.48648649,23.8381297 L6.32348649,23.8377784 L6.32348649,19.9997784 Z M29.6754865,2.48677838 L8.32348649,2.48677838 L8.32348649,23.8377784 L29.6754865,23.8377784 L29.6754865,2.48677838 Z M35.5134865,19.9997784 L31.6754865,19.9997784 L31.6754865,23.8377784 L35.5135135,23.8381297 L35.5134865,19.9997784 Z M15.5983693,7.91211095 L23.3821531,12.2904893 C24.0618048,12.6727934 24.0618048,13.6513363 23.3821531,14.0336404 L15.5983693,18.4120188 C14.9317653,18.7869836 14.1081081,18.3052697 14.1081081,17.5404432 L14.1081081,8.78368649 C14.1081081,8.01886001 14.9317653,7.53714617 15.5983693,7.91211095 Z M35.5134865,14.1617784 L31.6754865,14.1617784 L31.6754865,17.9997784 L35.5134865,17.9997784 L35.5134865,14.1617784 Z M6.32348649,14.1617784 L2.48548649,14.1617784 L2.48548649,17.9997784 L6.32348649,17.9997784 L6.32348649,14.1617784 Z M16.1081081,10.493534 L16.1081081,15.8305958 L20.852163,13.1620649 L16.1081081,10.493534 Z M35.5134865,8.32377838 L31.6754865,8.32377838 L31.6754865,12.1617784 L35.5134865,12.1617784 L35.5134865,8.32377838 Z M6.32348649,8.32377838 L2.48548649,8.32377838 L2.48548649,12.1617784 L6.32348649,12.1617784 L6.32348649,8.32377838 Z M35.5135135,2.48677838 L31.6754865,2.48677838 L31.6754865,6.32377838 L35.5134865,6.32377838 L35.5135135,2.48677838 Z M6.32348649,2.48677838 L2.48648649,2.48677838 L2.48548649,6.32377838 L6.32348649,6.32377838 L6.32348649,2.48677838 Z" transform="translate(225 159)"/>
    <path fill="#D9D9D9" d="M16.9998,0 C17.0423909,0 17.0843598,0.00266261633 17.1255495,0.00783047292 L16.9998,0 C17.0526361,0 17.1050411,0.00418141391 17.1565725,0.0123609877 C17.1881933,0.0172035954 17.2191064,0.0236158178 17.249462,0.0314174347 C17.2596053,0.0342797004 17.2696902,0.0370498784 17.2797252,0.0399762024 C17.3107399,0.0487322365 17.3411507,0.059226165 17.3708585,0.0711039637 C17.3798191,0.0749695695 17.3888567,0.0787341995 17.3978377,0.0826308894 C17.4260995,0.0946381533 17.4534613,0.108067907 17.4800859,0.122674361 C17.4904553,0.128558233 17.5010587,0.134613306 17.5115542,0.140864684 C17.5397066,0.15749759 17.5668269,0.175549461 17.5929738,0.194844517 C17.5993817,0.199634907 17.6062603,0.204834375 17.6130762,0.210126665 C17.6175282,0.213538884 17.6214003,0.216599882 17.625249,0.219688767 L17.7069068,0.292893219 L17.7069068,0.292893219 L27.7069068,10.2928932 C27.7362445,10.3222309 27.7637678,10.3533831 27.7892939,10.3861669 L27.7069068,10.2928932 C27.7427509,10.3287373 27.7755929,10.3670224 27.8052709,10.4073576 C27.8242505,10.4329731 27.8423024,10.4600934 27.8590238,10.4880999 C27.8651867,10.4987413 27.8712418,10.5093447 27.8770982,10.5200503 C27.8917321,10.5463387 27.9051618,10.5737005 27.9173449,10.6017294 C27.9210658,10.6109433 27.9248304,10.6199809 27.9284618,10.6290723 C27.9405738,10.6586493 27.9510678,10.6890601 27.9600981,10.720094 C27.9627501,10.7301098 27.9655203,10.7401947 27.9681328,10.7503259 C27.9761842,10.7806936 27.9825964,10.8116067 27.9875474,10.8430053 C27.9890866,10.8536072 27.990572,10.8640225 27.9918936,10.8744695 C27.9971374,10.9154402 27.9998,10.9574091 27.9998,11 L27.9998,11 L27.9998,33 C27.9998,33.5522847 27.5520847,34 26.9998,34 L0.9998,34 C0.44751525,34 -0.0002,33.5522847 -0.0002,33 L-0.0002,1 C-0.0002,0.44771525 0.44751525,0 0.9998,0 Z M15.9998,2 L1.9998,2 L1.9998,32 L25.9998,32 L25.9988,12 L16.9998,12 C16.4869642,12 16.0642928,11.6139598 16.0065277,11.1166211 L15.9998,11 L15.9998,2 Z M21.9998,24 C22.5520847,24 22.9998,24.4477153 22.9998,25 C22.9998,25.5128358 22.6137598,25.9355072 22.1164211,25.9932723 L21.9998,26 L5.9998,26 C5.44751525,26 4.9998,25.5522847 4.9998,25 C4.9998,24.4871642 5.38584019,24.0644928 5.88317887,24.0067277 L5.9998,24 L21.9998,24 Z M21.9998,17 C22.5520847,17 22.9998,17.4477153 22.9998,18 C22.9998,18.5128358 22.6137598,18.9355072 22.1164211,18.9932723 L21.9998,19 L5.9998,19 C5.44751525,19 4.9998,18.5522847 4.9998,18 C4.9998,17.4871642 5.38584019,17.0644928 5.88317887,17.0067277 L5.9998,17 L21.9998,17 Z M11.9998,10 C12.5520847,10 12.9998,10.4477153 12.9998,11 C12.9998,11.5128358 12.6137598,11.9355072 12.1164211,11.9932723 L11.9998,12 L5.9998,12 C5.44751525,12 4.9998,11.5522847 4.9998,11 C4.9998,10.4871642 5.38584019,10.0644928 5.88317887,10.0067277 L5.9998,10 L11.9998,10 Z M24.5848,10 L17.9998,3.415 L17.9998,10 L24.5848,10 Z" transform="translate(54 113)"/>
    <path fill="#D9D9D9" d="M23.149,0.5 C24.279263,0.5 25.2955991,0.986601296 26,1.76179555 C26.6574409,1.03828091 27.5866119,0.566162808 28.6265251,0.506429348 L28.851,0.5 L32,0.5 C32.5522847,0.5 33,0.94771525 33,1.5 C33,2.01283584 32.6139598,2.43550716 32.1166211,2.49327227 L32,2.5 L28.851,2.5 C27.8769855,2.5 27.0793251,3.25127868 27.0055661,4.20628892 L27,4.351 L27,30.649 C27,31.6230145 27.7512787,32.4206749 28.7062889,32.4944339 L28.851,32.5 L32,32.5 C32.5522847,32.5 33,32.9477153 33,33.5 C33,34.0128358 32.6139598,34.4355072 32.1166211,34.4932723 L32,34.5 L28.851,34.5 C27.720737,34.5 26.7044009,34.0133987 26,33.2382045 C25.3425591,33.9617191 24.4133881,34.4338372 23.3734749,34.4935707 L23.149,34.5 L20,34.5 C19.4477153,34.5 19,34.0522847 19,33.5 C19,32.9871642 19.3860402,32.5644928 19.8833789,32.5067277 L20,32.5 L23.149,32.5 C24.1230145,32.5 24.9206749,31.7487213 24.9944339,30.7937111 L25,30.649 L25,4.351 C25,3.37698548 24.2487213,2.57932515 23.2937111,2.50556615 L23.149,2.5 L20,2.5 C19.4477153,2.5 19,2.05228475 19,1.5 C19,0.987164161 19.3860402,0.564492839 19.8833789,0.506727731 L20,0.5 L23.149,0.5 Z M18,6.6274 L18,12.9694 L16.43,12.9694 L15.464,8.4394 L10.511,8.4394 L10.511,26.3494 L13.712,27.0734 L13.712,28.3724 L4.289,28.3724 L4.289,27.0734 L7.49,26.3494 L7.49,8.4394 L2.507,8.4394 L1.571,12.9694 L0,12.9694 L0,6.6274 L18,6.6274 Z" transform="translate(264 305)"/>
    <path fill="#D9D9D9" d="M26.8329,11.2546357 C27.9659,10.9176357 29.4199,10.9056357 30.5509,11.2756357 C31.1229,11.4626357 31.6169,11.7316357 32.0169,12.0776357 C32.4189,12.4246357 32.7399,12.8436357 32.9689,13.3236357 C33.1999,13.8066357 33.3169,14.3466357 33.3169,14.9276357 C33.3169,15.8446357 33.0459,16.6296357 32.5129,17.2606357 C32.1399,17.7036357 31.6659,18.0316357 31.0979,18.2406357 C32.7139,18.8146357 33.5319,19.9866357 33.5319,21.7356357 C33.5319,22.3706357 33.4089,22.9566357 33.1649,23.4756357 C32.9219,23.9966357 32.5749,24.4496357 32.1319,24.8226357 C31.6929,25.1946357 31.1579,25.4866357 30.5419,25.6896357 C29.9379,25.8926357 29.2529,25.9966357 28.5079,25.9966357 C27.8289,25.9966357 27.2009,25.8996357 26.6379,25.7106357 C26.0679,25.5166357 25.5739,25.2496357 25.1679,24.9126357 C24.7559,24.5696357 24.4309,24.1526357 24.2029,23.6736357 C23.9729,23.1916357 23.8559,22.6516357 23.8559,22.0686357 C23.8559,20.4876357 24.7369,20.1556357 25.4749,20.1556357 C25.9189,20.1556357 26.2789,20.2896357 26.5409,20.5526357 C26.8049,20.8146357 26.9389,21.1736357 26.9389,21.6186357 C26.9389,22.0416357 26.7929,22.3886357 26.5049,22.6536357 C26.2899,22.8496357 26.0239,22.9716357 25.7089,23.0196357 C26.0019,23.9746357 26.8439,24.4406357 28.2739,24.4406357 C29.1669,24.4406357 29.8399,24.2336357 30.2729,23.8246357 C30.7019,23.4186357 30.9179,22.8016357 30.9179,21.9906357 C30.9179,21.0496357 30.6339,20.3286357 30.0489,19.7876357 C29.4659,19.2466357 28.6449,18.9726357 27.6079,18.9726357 L27.6079,18.9726357 L27.3579,18.9726357 L27.3579,17.5336357 L27.6079,17.5336357 C28.0989,17.5336357 28.5519,17.4636357 28.9539,17.3236357 C29.3499,17.1866357 29.6929,16.9886357 29.9739,16.7366357 C30.2569,16.4836357 30.4709,16.1876357 30.6269,15.8346357 C30.7819,15.4826357 30.8599,15.0856357 30.8599,14.6536357 C30.8599,13.9656357 30.6659,13.4566357 30.2679,13.0976357 C29.8679,12.7386357 29.2679,12.5556357 28.4879,12.5556357 C27.0909,12.5556357 26.2699,12.9566357 25.9879,13.7786357 C26.3069,13.8226357 26.5749,13.9376357 26.7859,14.1226357 C27.0689,14.3766357 27.2119,14.7316357 27.2119,15.1816357 C27.2119,15.6296357 27.0709,15.9906357 26.7919,16.2536357 C26.5159,16.5126357 26.1519,16.6446357 25.7099,16.6446357 C25.1779,16.6446357 24.7539,16.4596357 24.4509,16.0946357 C24.1599,15.7426357 24.0119,15.2586357 24.0119,14.6536357 C24.0119,14.1056357 24.1299,13.5996357 24.3629,13.1506357 C24.5949,12.7006357 24.9239,12.3106357 25.3419,11.9896357 C25.7599,11.6716357 26.2609,11.4236357 26.8329,11.2546357 Z M6.884,11.0190357 L6.884,24.1680357 L8.979,24.5390357 L8.979,25.8010357 L2,25.8010357 L2,24.5330357 L4.486,24.1630357 L4.486,13.4160357 L2,13.4160357 L2,11.9190357 L2.25,11.9190357 C2.47,11.9190357 2.726,11.9010357 3.032,11.8630357 C3.321,11.8260357 3.613,11.7690357 3.899,11.6930357 C4.18,11.6170357 4.437,11.5270357 4.66,11.4230357 C4.864,11.3310357 5.016,11.2250357 5.111,11.1100357 L5.111,11.1100357 L5.186,11.0190357 L6.884,11.0190357 Z M14.1874,11.2748357 C15.3294,10.9088357 16.8464,10.9088357 17.9714,11.2758357 C18.5424,11.4618357 19.0384,11.7348357 19.4464,12.0878357 C19.8554,12.4418357 20.1784,12.8758357 20.4024,13.3788357 C20.6234,13.8778357 20.7354,14.4378357 20.7354,15.0458357 C20.7354,15.8858357 20.5354,16.6408357 20.1414,17.2878357 C19.7634,17.9148357 19.2764,18.4878357 18.6934,18.9918357 C18.1294,19.4778357 17.5084,19.9268357 16.8494,20.3268357 C16.2124,20.7118357 15.6064,21.0938357 15.0504,21.4648357 C14.5044,21.8268357 14.0484,22.1998357 13.6934,22.5728357 C13.4334,22.8458357 13.2794,23.1328357 13.2254,23.4428357 L13.2254,23.4428357 L18.9094,23.4428357 L19.3804,20.9378357 L20.9124,20.9378357 L20.9124,25.8018357 L11.1184,25.8018357 L11.1184,24.2588357 C11.1184,23.5368357 11.3084,22.8638357 11.6854,22.2588357 C12.0484,21.6738357 12.5064,21.1178357 13.0464,20.6058357 C13.5904,20.0898357 14.1774,19.5928357 14.7904,19.1308357 C15.4004,18.6678357 15.9734,18.1888357 16.4914,17.7088357 C17.0044,17.2338357 17.4354,16.7288357 17.7724,16.2098357 C18.0974,15.7128357 18.2614,15.1568357 18.2614,14.5548357 C18.2614,13.8998357 18.0554,13.4178357 17.6304,13.0788357 C17.1944,12.7318357 16.5434,12.5558357 15.6934,12.5558357 C14.3614,12.5558357 13.5544,13.0208357 13.2354,13.9748357 C13.5674,14.0198357 13.8394,14.1408357 14.0454,14.3358357 C14.3184,14.5918357 14.4574,14.9498357 14.4574,15.3968357 C14.4574,15.8438357 14.3184,16.2018357 14.0454,16.4598357 C13.7744,16.7138357 13.4014,16.8408357 12.9334,16.8408357 C12.2224,16.8408357 11.3734,16.5158357 11.3734,14.9658357 C11.3734,14.3718357 11.4894,13.8218357 11.7194,13.3338357 C11.9514,12.8458357 12.2794,12.4228357 12.6954,12.0758357 C13.1064,11.7318357 13.6084,11.4628357 14.1874,11.2748357 Z" transform="translate(381 358)"/>
    <path fill="#D9D9D9" d="M19.0005,-0.0003 C19.0403011,-0.0003 19.0795592,0.00202523396 19.1181457,0.00654726914 L19.0005,-0.0008 C19.059437,-0.0008 19.1178376,0.00440280693 19.1750877,0.0145540745 C19.1997036,0.0192201217 19.224092,0.0244735935 19.2481323,0.0305980636 C19.2604618,0.0334831717 19.2735332,0.0370977521 19.2865194,0.0409743829 C19.3138095,0.0493608889 19.3397535,0.0583160153 19.3651897,0.0682830077 C19.3798336,0.0737944463 19.394976,0.0801471066 19.4099554,0.0868696863 C19.4300643,0.0961370526 19.4497402,0.105777855 19.4690402,0.11603244 C19.4866896,0.125125323 19.5037131,0.134812311 19.520455,0.145002653 C19.5382758,0.156193019 19.5561493,0.167884196 19.5736138,0.180119391 C19.5854282,0.187981774 19.597066,0.196500844 19.6085295,0.205280627 L19.6211259,0.215542208 C19.6353327,0.226801406 19.6492263,0.238438492 19.6627916,0.250438279 L19.7076068,0.292093219 L29.7076068,10.2920932 C29.7511932,10.3356797 29.7903405,10.3828754 29.8247578,10.4329779 C29.8352355,10.4485141 29.8457126,10.4646826 29.8557266,10.4811636 C29.8646618,10.4956989 29.8730122,10.5103139 29.8809843,10.5251211 C29.8927218,10.5469434 29.9037492,10.5693111 29.9139466,10.5921309 C29.9201899,10.6062449 29.9262057,10.6206341 29.9318825,10.6351576 C29.941884,10.6604465 29.9508391,10.6863905 29.9587328,10.7127926 C29.962515,10.7258745 29.966054,10.7386499 29.9693396,10.7514993 C29.9773312,10.7822718 29.9838504,10.8140791 29.9888224,10.8463966 C29.9898663,10.8535501 29.9908849,10.8606455 29.9918276,10.867756 C29.9929616,10.8762525 29.9933755,10.8796631 29.9937723,10.8830789 L30.0005,10.9992 L30.0005,32.9992 C30.0005,33.5120358 29.6144598,33.9347072 29.1171211,33.9924723 L29.0005,33.9992 L3.0005,33.9992 C2.48766416,33.9992 2.06499284,33.6131598 2.00722773,33.1158211 L2.0005,32.9992 L2,27.4342 L1,27.435 C0.487164161,27.435 0.0644928393,27.0489598 0.00672773133,26.5516211 L0,26.435 L0,16.435 C0,15.8827153 0.44771525,15.435 1,15.435 L1,15.435 L2,15.4342 L2.0005,0.9992 C2.0005,0.486364161 2.38654019,0.0636928393 2.88387887,0.00592773133 L3.0005,-0.0008 L19.0005,-0.0003 L19.0005,-0.0003 Z M18,1.9982 L4,1.999 L4,15.4342 L19,15.435 C19.5128358,15.435 19.9355072,15.8210402 19.9932723,16.3183789 L20,16.435 L20,26.435 C20,26.9872847 19.5522847,27.435 19,27.435 L19,27.435 L4,27.4342 L4,31.999 L28,31.999 L28,11.9992 L19.0005,11.9997 C18.4876642,11.9997 18.0649928,11.6136598 18.0072277,11.1163211 L18.0005,10.9997 L18,1.9982 Z M18,17.435 L2,17.435 L2,25.435 L18,25.435 L18,17.435 Z M20,3.4122 L20,9.999 L26.587,9.9992 L20,3.4122 Z" transform="translate(1241 358)"/>
    <path fill="#D9D9D9" d="M1.48484848,0.484848485 C2.03713323,0.484848485 2.48484848,0.932563735 2.48484848,1.48484848 L2.48484848,1.48484848 L2.48484848,31.5151515 L32.5151515,31.5151515 C33.0674363,31.5151515 33.5151515,31.9628668 33.5151515,32.5151515 C33.5151515,33.0674363 33.0674363,33.5151515 32.5151515,33.5151515 L32.5151515,33.5151515 L1.48484848,33.5151515 C0.932563735,33.5151515 0.484848485,33.0674363 0.484848485,32.5151515 L0.484848485,32.5151515 L0.484848485,1.48484848 C0.484848485,0.932563735 0.932563735,0.484848485 1.48484848,0.484848485 Z M14.152,16.413 L7.04044011,23.5252886 C6.67995615,23.8857726 6.1127251,23.9135021 5.72043389,23.6084772 L5.62622655,23.5252886 C5.26574259,23.1648046 5.23801306,22.5975736 5.54303795,22.2052824 L5.62622655,22.111075 L13.42742,14.3122588 L13.4838486,14.2658051 L13.5922702,14.1935089 L13.6736819,14.1515079 L13.7401496,14.1239568 L13.8640044,14.0866318 L13.9578614,14.069483 L14.0729042,14.0607504 L14.1639298,14.0632592 L14.2536635,14.073852 L14.3360322,14.0908758 L14.4248566,14.1177317 L14.5469197,14.1703887 L14.6523797,14.2328876 L14.7268485,14.2888485 L14.7310935,14.2923848 L19.805,18.52 L26.9192573,10.5174543 C27.2861754,10.1046716 27.9182477,10.0674908 28.3310305,10.4344089 C28.7120608,10.7731024 28.7730514,11.3377263 28.491589,11.7472522 L28.414076,11.846182 L20.6264455,20.6058249 L20.5804568,20.6503848 L20.4884629,20.7244556 L20.3805418,20.791283 L20.3015686,20.8290861 L20.1931588,20.868011 L20.1221882,20.8861861 L20.0493417,20.8992148 L19.9487019,20.9083134 L19.8093978,20.9042092 L19.6919995,20.8854562 L19.5815245,20.8542055 L19.5118095,20.8270828 L19.4305334,20.7873941 L19.3630877,20.7470359 L19.3026712,20.7042938 L19.3026712,20.7042938 L19.2689065,20.6773122 L19.302,20.701 L19.2447271,20.6565002 L19.2447271,20.6565002 L14.152,16.413 Z" transform="translate(943 400)"/>
    <path fill="#D9D9D9" d="M12.6218,-0.0001 C13.0806457,-0.0001 13.4806156,0.312168093 13.5919282,0.757307238 L13.5919282,0.757307238 L14.401529,3.9949 L28.9678,3.9949 C29.5200847,3.9949 29.9678,4.44261525 29.9678,4.9949 L29.9678,4.9949 L29.967747,7.9899 L33.0002,7.9909 C33.6458916,7.9909 34.1223215,8.59370851 33.9731462,9.22193175 L29.9411462,26.2019318 C29.8341123,26.6526846 29.4314865,26.9709 28.9682,26.9709 L1.01674701,26.9699 L0.9998,26.9709 C0.964059961,26.9709 0.928757837,26.9690251 0.89398662,26.9653682 L1.0002,26.9709 C0.942498389,26.9709 0.886148492,26.966086 0.831475979,26.9568701 C0.795809884,26.9507605 0.760479593,26.942751 0.725912176,26.9329287 C0.686413535,26.9218805 0.6486484,26.9085821 0.612058058,26.8931793 C0.560180596,26.8711415 0.510064726,26.8447864 0.462667738,26.8145468 C0.422590008,26.7890136 0.3849403,26.760947 0.349497372,26.7304782 C0.135491383,26.5472981 -0.0002,26.2749453 -0.0002,25.9709 L-0.0002,25.9709 L-0.0002,0.9999 C-0.0002,0.44761525 0.44751525,-0.0001 0.9998,-0.0001 L0.9998,-0.0001 Z M31.7349381,9.9909 L28.984747,9.9899 L28.9678,9.9909 C28.9620681,9.9909 28.9563475,9.99085178 28.9506385,9.99075571 L5.82255022,9.9909 L2.26546188,24.9709 L28.1778498,24.9709 L31.7349381,9.9909 Z M11.841071,1.9999 L1.9998,1.9999 L1.99974701,17.4299 L4.05925379,8.75986825 C4.16628768,8.30911539 4.56891348,7.9909 5.0322,7.9909 L27.967747,7.9899 L27.9678,5.9949 L13.6208,5.9949 C13.1619543,5.9949 12.7619844,5.68263191 12.6506718,5.23749276 L12.6506718,5.23749276 L11.841071,1.9999 Z" transform="translate(956 274)"/>
    <path fill="#D9D9D9" d="M13.001,9.99999999e-05 C14.8192764,9.99999999e-05 16.3961374,1.1349542 17.0233482,2.7671 L20.748,2.7671 C21.2247333,2.7671 21.6351778,3.10363174 21.7286079,3.57112017 L22.1197,5.5331 L24.9997,5.5337 C25.5125358,5.5337 25.9352072,5.91974019 25.9929723,6.41707887 L25.9997,6.5337 L25.9997,32.9997 C25.9997,33.5519847 25.5519847,33.9997 24.9997,33.9997 L24.9997,33.9997 L0.9997,33.9997 C0.44741525,33.9997 -0.0003,33.5519847 -0.0003,32.9997 L-0.0003,32.9997 L-0.0003,6.5337 C-0.0003,5.98141525 0.44741525,5.5337 0.9997,5.5337 L0.9997,5.5337 L3.8787,5.5331 L4.27242614,3.57094979 C4.36592466,3.10354165 4.77633204,2.7671 5.253,2.7671 L8.97765178,2.7671 L9.05743729,2.57365777 C9.73147002,1.04587718 11.2547708,9.99999999e-05 13.001,9.99999999e-05 Z M3.4787,7.5331 L1.9997,7.5337 L1.9997,31.9997 L23.9997,31.9997 L23.9997,7.5337 L22.5197,7.5331 L22.8346079,9.10512017 C22.9582692,9.72387368 22.4849897,10.3011 21.854,10.3011 L4.146,10.3011 C3.5149394,10.3011 3.04164347,9.72375132 3.16542614,9.10494979 L3.4787,7.5331 Z M20.0009,25.8799 C20.5531847,25.8799 21.0009,26.3276153 21.0009,26.8799 C21.0009,27.3927358 20.6148598,27.8154072 20.1175211,27.8731723 L20.0009,27.8799 L6.0009,27.8799 C5.44861525,27.8799 5.0009,27.4321847 5.0009,26.8799 C5.0009,26.3670642 5.38694019,25.9443928 5.88427887,25.8866277 L6.0009,25.8799 L20.0009,25.8799 Z M20.0009,20.1504 C20.5531847,20.1504 21.0009,20.5981153 21.0009,21.1504 C21.0009,21.6632358 20.6148598,22.0859072 20.1175211,22.1436723 L20.0009,22.1504 L6.0009,22.1504 C5.44861525,22.1504 5.0009,21.7026847 5.0009,21.1504 C5.0009,20.6375642 5.38694019,20.2148928 5.88427887,20.1571277 L6.0009,20.1504 L20.0009,20.1504 Z M20.0009,14.4214 C20.5531847,14.4214 21.0009,14.8691153 21.0009,15.4214 C21.0009,15.9342358 20.6148598,16.3569072 20.1175211,16.4146723 L20.0009,16.4214 L6.0009,16.4214 C5.44861525,16.4214 5.0009,15.9736847 5.0009,15.4214 C5.0009,14.9085642 5.38694019,14.4858928 5.88427887,14.4281277 L6.0009,14.4214 L20.0009,14.4214 Z M13.001,2.0001 C11.86843,2.0001 10.908965,2.82338825 10.7221206,3.93313051 C10.6410622,4.41456811 10.2242137,4.7671 9.736,4.7671 L6.07277485,4.7671 L5.36584713,8.3011 L20.634369,8.3011 L19.9280799,4.7671 L16.265,4.7671 C15.7767863,4.7671 15.3599378,4.41456811 15.2788794,3.93313051 C15.0920523,2.82349103 14.1326751,2.0001 13.001,2.0001 Z" transform="translate(790 242)"/>
    <path fill="#D9D9D9" d="M20.5243932,1.96829322 C23.1489175,-0.656231073 27.4060825,-0.656231073 30.0306068,1.96829322 C32.6561574,4.59384388 32.6561574,8.85113089 30.0307572,11.4753563 L30.0517051,11.4549084 C30.0449963,11.4620164 30.0381635,11.4690501 30.0312068,11.4760068 L30.013833,11.4909 L27.6802068,13.8265068 L27.6802068,13.8265068 L11.1482068,30.3585068 C10.9952171,30.5114965 10.7967353,30.610741 10.5825507,30.6413453 L1.14155072,31.9903453 C0.481611646,32.0846423 -0.0840807685,31.519017 0.0101379287,30.8590667 L1.35813793,21.4170667 C1.38872254,21.2028383 1.48797485,21.0043116 1.64099322,20.8512932 Z M2.56083303,27.1389 L2.17849481,29.8218654 L4.86083303,29.4379 L2.56083303,27.1389 Z M18.8801,6.44061356 L3.29094399,22.0297696 L2.91483303,24.6639 L7.33483303,29.0839 L9.96968383,28.7086026 L25.5588864,13.1194 L18.8801,6.44061356 Z M21.230833,4.0899 L20.293833,5.0259 L26.972833,11.7049 L27.908833,10.7679 L21.230833,4.0899 Z M28.6163932,3.38250678 C27.015572,1.78168555 24.5495632,1.57097139 22.7209747,2.7503643 L29.2489732,9.278774 C30.4288854,7.45020158 30.2180599,4.98417349 28.6163932,3.38250678 Z" transform="translate(512 253)"/>
    <path fill="#D9D9D9" d="M1.47087331,33.5150646 C1.45385261,33.5148206 1.43684282,33.5141446 1.41986175,33.5130378 L1.48484848,33.5151515 C1.44260673,33.5151515 1.40097671,33.5125324 1.36011196,33.5074476 C1.34024169,33.5048575 1.32047512,33.5017777 1.30080581,33.4981079 C1.28358094,33.4950488 1.26642045,33.4913826 1.24942917,33.4872825 C1.23240983,33.4830086 1.2159666,33.4785868 1.19962942,33.4737425 C1.17698868,33.4671702 1.15438273,33.4595594 1.13215391,33.4511794 C1.11763086,33.4456295 1.10351638,33.4399491 1.08951734,33.4339378 C1.06998564,33.4255551 1.05071376,33.4165058 1.03178944,33.4068717 C1.01552846,33.3986745 0.999415709,33.3899311 0.983512994,33.3807193 C0.965483284,33.3701348 0.947598094,33.3589851 0.930102187,33.3472983 C0.915677229,33.3378378 0.901911565,33.3281282 0.888354102,33.318036 C0.868751354,33.3032682 0.84937657,33.287709 0.830612549,33.2714632 C0.794378822,33.2401829 0.760132253,33.2059477 0.728025477,33.1687714 L0.805693223,33.2491525 C0.782132585,33.2273419 0.759624061,33.2044109 0.738252306,33.1804444 L0.728025477,33.1687714 C0.726081716,33.1665207 0.72414976,33.1642639 0.722229605,33.1620009 C0.654050528,33.0817852 0.598182666,32.9903253 0.557843975,32.8909062 C0.532193343,32.8276402 0.51338093,32.7625353 0.501275715,32.6965509 C0.490516473,32.6381092 0.484848485,32.5772923 0.484848485,32.5151515 L0.484848485,1.48484848 C0.484848485,0.932563735 0.932563735,0.484848485 1.48484848,0.484848485 L32.5151515,0.484848485 C33.0674363,0.484848485 33.5151515,0.932563735 33.5151515,1.48484848 L33.5151515,32.5151515 C33.5151515,33.0674363 33.0674363,33.5151515 32.5151515,33.5151515 Z M22.8426391,15.3910998 L4.17184848,31.5148485 L31.5151515,31.5151515 L31.5148485,22.3288485 L22.8426391,15.3910998 Z M31.5151515,2.48484848 L2.48484848,2.48484848 L2.48484848,30.3298485 L22.1645619,13.3340861 C22.4960758,13.0477787 22.9703442,13.0133964 23.3365183,13.2356578 L23.4428769,13.3100403 L31.5148485,19.7678485 L31.5151515,2.48484848 Z M11.1818182,6.3030303 C13.8761635,6.3030303 16.0606061,8.48747283 16.0606061,11.1818182 C16.0606061,13.8761635 13.8761635,16.0606061 11.1818182,16.0606061 C8.48747283,16.0606061 6.3030303,13.8761635 6.3030303,11.1818182 C6.3030303,8.48747283 8.48747283,6.3030303 11.1818182,6.3030303 Z M11.1818182,8.3030303 C9.59204233,8.3030303 8.3030303,9.59204233 8.3030303,11.1818182 C8.3030303,12.771594 9.59204233,14.0606061 11.1818182,14.0606061 C12.771594,14.0606061 14.0606061,12.771594 14.0606061,11.1818182 C14.0606061,9.59204233 12.771594,8.3030303 11.1818182,8.3030303 Z" transform="translate(648 341)"/>
    <ellipse cx="125" cy="73" stroke="#E5E5E5" stroke-linecap="round" stroke-linejoin="round" stroke-width="2" rx="23" ry="22"/>
    <ellipse cx="226" cy="465" stroke="#E5E5E5" stroke-linecap="round" stroke-linejoin="round" stroke-width="2" rx="23" ry="22"/>
    <circle cx="510" cy="388" r="5" stroke="#E5E5E5" stroke-linecap="round" stroke-linejoin="round" stroke-width="2"/>
    <circle cx="313" cy="277" r="5" stroke="#E5E5E5" stroke-linecap="round" stroke-linejoin="round" stroke-width="2"/>
    <circle cx="937" cy="338" r="5" stroke="#E5E5E5" stroke-linecap="round" stroke-linejoin="round" stroke-width="2"/>
    <circle cx="1107" cy="167" r="5" stroke="#E5E5E5" stroke-linecap="round" stroke-linejoin="round" stroke-width="2"/>
    <circle cx="688" cy="316" r="5" stroke="#E5E5E5" stroke-linecap="round" stroke-linejoin="round" stroke-width="2"/>
    <circle cx="620" cy="448" r="5" stroke="#E5E5E5" stroke-linecap="round" stroke-linejoin="round" stroke-width="2"/>
    <circle cx="1296" cy="287" r="5" stroke="#E5E5E5" stroke-linecap="round" stroke-linejoin="round" stroke-width="2"/>
    <circle cx="1097" cy="460" r="5" stroke="#E5E5E5" stroke-linecap="round" stroke-linejoin="round" stroke-width="2"/>
    <circle cx="819" cy="465" r="5" stroke="#E5E5E5" stroke-linecap="round" stroke-linejoin="round" stroke-width="2"/>
    <ellipse cx="188" cy="238" stroke="#E5E5E5" stroke-linecap="round" stroke-linejoin="round" stroke-width="2" rx="23" ry="22"/>
    <ellipse cx="1339" cy="421" stroke="#E5E5E5" stroke-linecap="round" stroke-linejoin="round" stroke-width="2" rx="23" ry="22"/>
  </g>
</svg>
